<svg width="640" height="480" xmlns="http://www.w3.org/2000/svg" xmlns:svg="http://www.w3.org/2000/svg">
 <!-- Created with SVG-edit - https://github.com/SVG-Edit/svgedit-->
 <g class="layer layer-1 layer">
  <title>Layer 1</title>
  <g id="building-l">
   <path d="m50.17263,478.55308l-1.51029,-243.82566l13.53363,0l0,-53.39248l110.62272,0l0,52.84204l11.76837,0l0,33.02628l17.65256,0l0,41.83328l10.59155,0l0,169.53489l-162.65855,-0.01835l0.00001,0z" fill="none" id="svg_16" stroke="#051552" stroke-dasharray="null" stroke-linecap="null" stroke-linejoin="null" stroke-width="3"/>
   <path d="m68.46648,180.45671l18.09387,-35.77846l60.31293,0l18.09387,35.77846l-96.50068,0l0.00001,0z" fill="none" id="svg_6" stroke="#051552" stroke-dasharray="null" stroke-linecap="null" stroke-linejoin="null" stroke-width="3"/>
  </g>
  <g id="building-r">
   <path d="m390.436,478.42823l1.47958,-243.82567l-13.25848,0l0,-53.39248l-108.37369,0l0,52.84204l-11.52911,0l0,33.02628l-17.29367,0l0,41.83329l-10.37621,0l0,169.53489l159.35158,-0.01835l-0.00001,0l0.00001,0z" fill="none" id="svg_2" stroke="#051552" stroke-dasharray="null" stroke-linecap="null" stroke-linejoin="null" stroke-width="3"/>
   <path d="m372.51407,180.33185l-17.72601,-35.77846l-59.08673,0l-17.72601,35.77846l94.53875,0z" fill="none" id="svg_3" stroke="#051552" stroke-dasharray="null" stroke-linecap="null" stroke-linejoin="null" stroke-width="3"/>
  </g>
 </g>
 <g class="layer layer-2">
  <title>Layer 2</title>
  <g id="svg_21">
   <line fill="none" id="svg_1" stroke="#051552" stroke-dasharray="null" stroke-linecap="null" stroke-linejoin="null" x1="70.65652" x2="162.46356" y1="211.44779" y2="211.44779"/>
   <line fill="none" id="svg_4" stroke="#051552" stroke-dasharray="null" stroke-linecap="null" stroke-linejoin="null" x1="77.31581" x2="163.07029" y1="238.85207" y2="238.85207"/>
   <line fill="none" id="svg_5" stroke="#051552" stroke-dasharray="null" stroke-linecap="null" stroke-linejoin="null" x1="61.5" x2="176.61674" y1="269.57808" y2="269.57808"/>
   <line fill="none" id="svg_7" stroke="#051552" stroke-dasharray="null" stroke-linecap="null" stroke-linejoin="null" x1="65.66206" x2="191.53238" y1="304.45625" y2="304.45625"/>
   <line fill="none" id="svg_8" stroke="#051552" stroke-dasharray="null" stroke-linecap="null" stroke-linejoin="null" x1="61.5" x2="195.54142" y1="335.18226" y2="335.18226"/>
   <line fill="none" id="svg_9" stroke="#051552" stroke-dasharray="null" stroke-linecap="null" stroke-linejoin="null" x1="62.33241" x2="200.57528" y1="374.21259" y2="374.21259"/>
   <line fill="none" id="svg_10" stroke="#051552" stroke-dasharray="null" stroke-linecap="null" stroke-linejoin="null" x1="66.49447" x2="187.19692" y1="415.73423" y2="415.73423"/>
   <line fill="none" id="svg_11" stroke="#051552" stroke-dasharray="null" stroke-linecap="null" stroke-linejoin="null" x1="64.82965" x2="197.27718" y1="441.47764" y2="441.47764"/>
   <line fill="none" id="svg_12" stroke="#051552" stroke-dasharray="null" stroke-linecap="null" stroke-linejoin="null" x1="68.9917" x2="198.94381" y1="460.57759" y2="460.57759"/>
   <line fill="none" id="svg_13" stroke="#051552" stroke-dasharray="null" stroke-linecap="null" stroke-linejoin="null" x1="65.66206" x2="189.19867" y1="396.63428" y2="396.63428"/>
   <line fill="none" id="svg_14" stroke="#051552" stroke-dasharray="null" stroke-linecap="null" stroke-linejoin="null" x1="82.31027" x2="82.31027" y1="198.16087" y2="468.07192"/>
   <line fill="none" id="svg_15" stroke="#051552" stroke-dasharray="null" stroke-linecap="null" stroke-linejoin="null" x1="98.95849" x2="98.95849" y1="196.50001" y2="465.56531"/>
   <line fill="none" id="svg_17" stroke="#051552" stroke-dasharray="null" stroke-linecap="null" stroke-linejoin="null" x1="126.42805" x2="126.42805" y1="199.82174" y2="461.45547"/>
   <line fill="none" id="svg_18" stroke="#051552" stroke-dasharray="null" stroke-linecap="null" stroke-linejoin="null" x1="145.5735" x2="145.5735" y1="198.16087" y2="475.64967"/>
   <line fill="none" id="svg_19" stroke="#051552" stroke-dasharray="null" stroke-linecap="null" stroke-linejoin="null" x1="169.71341" x2="169.71341" y1="293.66063" y2="471.42171"/>
  </g>
  <g id="svg_22">
   <line fill="none" id="svg_23" stroke="#051552" stroke-dasharray="null" stroke-linecap="null" stroke-linejoin="null" x1="368.14495" x2="279.73791" y1="215.89102" y2="215.89102"/>
   <line fill="none" id="svg_24" stroke="#051552" stroke-dasharray="null" stroke-linecap="null" stroke-linejoin="null" x1="361.73229" x2="279.15365" y1="242.41177" y2="242.41177"/>
   <line fill="none" id="svg_25" stroke="#051552" stroke-dasharray="null" stroke-linecap="null" stroke-linejoin="null" x1="376.96236" x2="266.10889" y1="272.14715" y2="272.14715"/>
   <line fill="none" id="svg_26" stroke="#051552" stroke-dasharray="null" stroke-linecap="null" stroke-linejoin="null" x1="372.95445" x2="251.74563" y1="305.90082" y2="305.90082"/>
   <line fill="none" id="svg_27" stroke="#051552" stroke-dasharray="null" stroke-linecap="null" stroke-linejoin="null" x1="376.96236" x2="247.88506" y1="335.6362" y2="335.6362"/>
   <line fill="none" id="svg_28" stroke="#051552" stroke-dasharray="null" stroke-linecap="null" stroke-linejoin="null" x1="376.16078" x2="243.03762" y1="373.40817" y2="373.40817"/>
   <line fill="none" id="svg_29" stroke="#051552" stroke-dasharray="null" stroke-linecap="null" stroke-linejoin="null" x1="372.15287" x2="255.92053" y1="413.59111" y2="413.59111"/>
   <line fill="none" id="svg_30" stroke="#051552" stroke-dasharray="null" stroke-linecap="null" stroke-linejoin="null" x1="373.75603" x2="246.21359" y1="438.50454" y2="438.50454"/>
   <line fill="none" id="svg_31" stroke="#051552" stroke-dasharray="null" stroke-linecap="null" stroke-linejoin="null" x1="369.74812" x2="244.60868" y1="456.98869" y2="456.98869"/>
   <line fill="none" id="svg_32" stroke="#051552" stroke-dasharray="null" stroke-linecap="null" stroke-linejoin="null" x1="372.95445" x2="253.99291" y1="395.10696" y2="395.10696"/>
   <line fill="none" id="svg_33" stroke="#051552" stroke-dasharray="null" stroke-linecap="null" stroke-linejoin="null" x1="356.92279" x2="356.92279" y1="203.03248" y2="464.24141"/>
   <line fill="none" id="svg_34" stroke="#051552" stroke-dasharray="null" stroke-linecap="null" stroke-linejoin="null" x1="340.89112" x2="340.89112" y1="201.42516" y2="461.81561"/>
   <line fill="none" id="svg_35" stroke="#051552" stroke-dasharray="null" stroke-linecap="null" stroke-linejoin="null" x1="314.43888" x2="314.43888" y1="204.6398" y2="457.83827"/>
   <line fill="none" id="svg_36" stroke="#051552" stroke-dasharray="null" stroke-linecap="null" stroke-linejoin="null" x1="296.00246" x2="296.00246" y1="203.03248" y2="471.57484"/>
   <line fill="none" id="svg_37" stroke="#051552" stroke-dasharray="null" stroke-linecap="null" stroke-linejoin="null" x1="272.75655" x2="272.75655" y1="295.45325" y2="467.48319"/>
  </g>
 </g>
 <g class="layer layer-3">
  <title>Layer 3</title>
  <rect fill="#ffffff" height="78" id="svg_38" stroke="#051552" stroke-dasharray="null" stroke-linecap="null" stroke-linejoin="null" stroke-width="2" width="28" x="115.5" y="165.5"/>
  <rect fill="#ffffff" height="0" id="svg_39" stroke="#051552" stroke-dasharray="null" stroke-linecap="null" stroke-linejoin="null" stroke-width="2" width="4" x="113.5" y="192.5"/>
  <rect fill="#ffffff" height="78" id="svg_41" stroke="#051552" stroke-dasharray="null" stroke-linecap="null" stroke-linejoin="null" stroke-width="2" width="28" x="297.5" y="163.5"/>
  <line fill="none" id="svg_20" stroke="#051552" stroke-dasharray="null" stroke-linecap="null" stroke-linejoin="null" stroke-width="2" x1="121.5" x2="135.5" y1="180.5" y2="180.5"/>
  <line fill="none" id="svg_40" stroke="#051552" stroke-dasharray="null" stroke-linecap="null" stroke-linejoin="null" stroke-width="2" x1="121.5" x2="136.5" y1="202.5" y2="202.5"/>
  <line fill="none" id="svg_42" stroke="#051552" stroke-dasharray="null" stroke-linecap="null" stroke-linejoin="null" stroke-width="2" x1="123.5" x2="135.5" y1="228.5" y2="228.5"/>
  <line fill="none" id="svg_43" stroke="#051552" stroke-dasharray="null" stroke-linecap="null" stroke-linejoin="null" stroke-width="2" x1="305.5" x2="318.5" y1="177.5" y2="177.5"/>
  <line fill="none" id="svg_44" stroke="#051552" stroke-dasharray="null" stroke-linecap="null" stroke-linejoin="null" stroke-width="2" x1="306.5" x2="314.5" y1="197.5" y2="197.5"/>
  <line fill="none" id="svg_45" stroke="#051552" stroke-dasharray="null" stroke-linecap="null" stroke-linejoin="null" stroke-width="2" x1="302.5" x2="320.5" y1="221.5" y2="221.5"/>
  <line fill="none" id="svg_46" stroke="#051552" stroke-dasharray="null" stroke-linecap="null" stroke-linejoin="null" stroke-width="2" x1="312.5" x2="312.5" y1="170.5" y2="231.5"/>
 </g>
 <g class="layer layer-4">
  <title>Layer 4</title>
  <path d="m424.39251,478.79581l10.6875,-364.00002l35.625,0l10.6875,364.00002l-57,0z" fill="#ffffff" id="svg_52" stroke="#051552" stroke-dasharray="null" stroke-linecap="null" stroke-linejoin="null" stroke-width="3"/>
  <path d="m404.58352,112.85922l18.375,-40.99999l61.25,0l18.37499,40.99999l-97.99999,0z" fill="#ffffff" id="svg_53" stroke="#051552" stroke-dasharray="null" stroke-linecap="null" stroke-linejoin="null" stroke-width="3" transform="rotate(180 453.583 92.3592)"/>
  <path d="m423.37751,70.57416l11.0625,-18l36.875,0l11.06249,18l-58.99999,0z" fill="#ffffff" id="svg_54" stroke="#051552" stroke-dasharray="null" stroke-linecap="null" stroke-linejoin="null" stroke-width="3"/>
  <path d="m445.27251,51.98103l6,-39.5l6,39.5l-12,0z" fill="#ffffff" id="svg_55" stroke="#051552" stroke-dasharray="null" stroke-linecap="null" stroke-linejoin="null" stroke-width="3"/>
 </g>
</svg>